<?xml version="1.0" encoding="UTF-8" standalone="no"?><!DOCTYPE svg PUBLIC "-//W3C//DTD SVG 1.1//EN" "http://www.w3.org/Graphics/SVG/1.1/DTD/svg11.dtd"><svg width="100%" height="100%" viewBox="0 0 2221 2221" version="1.1" xmlns="http://www.w3.org/2000/svg" xmlns:xlink="http://www.w3.org/1999/xlink" xml:space="preserve" xmlns:serif="http://www.serif.com/" style="fill-rule:evenodd;clip-rule:evenodd;stroke-linecap:round;stroke-linejoin:round;stroke-miterlimit:1.5;"><g><path d="M678.096,911.431c-118.85,-35.149 -384.956,-157.773 -325.543,-441.812c-318.251,233.313 -60.444,553.281 175.269,660.2c181.965,82.538 280.066,125.617 379.526,175.763c98.977,49.903 333.195,210.184 150.023,451.429c150.35,-51.566 315.472,-330.19 100.138,-574.879c-79.763,-90.636 -288.04,-214.104 -479.413,-270.701Z" style="stroke:#0e0000;stroke-opacity:0;stroke-width:4.17px;"/><path d="M581.497,338.983c101.919,-0.392 290.769,-0.186 357.45,-0.186c66.681,-0 130.143,56.692 130.143,127.643c-0,47.824 -36.064,126.223 -130.535,126.223c-94.471,-0 -126.583,-71.336 -156.211,-112.307c-27.276,-37.72 -105.806,-131.182 -200.847,-141.373Z" style="stroke:#0e0000;stroke-opacity:0;stroke-width:4.17px;"/><path d="M698.894,1878.02c-101.919,0.392 -290.769,0.186 -357.45,0.186c-66.68,-0 -130.142,-56.692 -130.142,-127.644c-0,-47.823 36.063,-126.223 130.534,-126.223c94.472,0 126.584,71.337 156.211,112.307c27.276,37.72 105.806,131.182 200.847,141.374Z" style="stroke:#0e0000;stroke-opacity:0;stroke-width:4.17px;"/><path d="M1082.76,335.219c472.09,34.446 741.298,407.886 746.691,751.243c5.818,370.436 -257.836,746.238 -745.797,794.633c175.01,9.08 320.266,-3.374 433.875,-49.008c441.148,-177.2 501.226,-572.654 498.897,-747.622c-0.69,-51.801 -47.689,-793.284 -933.666,-749.246Z" style="stroke:#0e0000;stroke-opacity:0;stroke-width:4.17px;"/></g></svg>